# xmcd CD database file
#
# Track frame offsets:
#	150
#	22992
#	49290
#	75352
#	98480
#	120715
#	153320
#	200080
#	220057
#
# Disc length: 3177 seconds
#
# Revision: 1
# Processed by: cddbd v1.4PL0 Copyright (c) Steve Scherf et al.
# Submitted via: Gronk 1.4
#
DISCID=6b0c6709
DTITLE=Eric Clapton - August Outtakes and Different Mixes vol 1
DYEAR=1900
DGENRE=blues
TTITLE0=Lady from Verona
TTITLE1=Hold on
TTITLE2=Take a chance
TTITLE3=Bad influence
TTITLE4=Hung up on your love
TTITLE5=Wanna make love to you
TTITLE6=Behind the mask
TTITLE7=Holy Mother
TTITLE8=Walk away
EXTD=
EXTT0=
EXTT1=
EXTT2=
EXTT3=
EXTT4=
EXTT5=
EXTT6=
EXTT7=
EXTT8=
PLAYORDER=
